<?xml version="1.0" standalone="yes"?>
<svg xmlns="http://www.w3.org/2000/svg" width="226" height="26">
<path style="fill:#fdfdfd; stroke:none;" d="M0 0L0 26L226 26L226 0L0 0z"/>
<path style="fill:#a0a0a0; stroke:none;" d="M41 2L41 3L46 3L41 2z"/>
<path style="fill:#5e5e5e; stroke:none;" d="M39 3L40 4L39 3z"/>
<path style="fill:#050505; stroke:none;" d="M37 15C39.173 19.1408 49.1327 22.7295 49.1327 15.064C49.1327 14.271 32.8784 1.00466 45.6698 5.46991C46.7743 5.85549 47.9258 6.53554 49 7C46.7289 3.50534 37.2575 0.891329 38.1759 7.8858C38.7062 11.9243 44.4444 11.1439 46.0787 14.284C49.4041 20.6732 38.5387 15.9625 37 15z"/>
<path style="fill:#2f2f2f; stroke:none;" d="M46 3L47 4L46 3z"/>
<path style="fill:#a0a0a0; stroke:none;" d="M47 3L48 4L47 3z"/>
<path style="fill:#5e5e5e; stroke:none;" d="M126 3L126 20L127 20L126 3z"/>
<path style="fill:#050505; stroke:none;" d="M127 3L127 20L128 20L128 12C135.663 12.1854 135.066 16.0395 140 20C137.205 9.28458 140.579 3.00899 127 3z"/>
<path style="fill:#2f2f2f; stroke:none;" d="M136 3L137 4L136 3z"/>
<path style="fill:#a0a0a0; stroke:none;" d="M137 3L138 4L137 3z"/>
<path style="fill:#2f2f2f; stroke:none;" d="M38 4L39 5L38 4z"/>
<path style="fill:#5e5e5e; stroke:none;" d="M41 4L42 5L41 4z"/>
<path style="fill:#a0a0a0; stroke:none;" d="M42.6667 4.33333L43.3333 4.66667L42.6667 4.33333z"/>
<path style="fill:#5e5e5e; stroke:none;" d="M44 4L45 5L44 4z"/>
<path style="fill:#2f2f2f; stroke:none;" d="M129 4L129 5L135 5L129 4z"/>
<path style="fill:#5e5e5e; stroke:none;" d="M138 4L139 5L138 4z"/>
<path style="fill:#050505; stroke:none;" d="M190 4L188 8L188 9L194 20L194 19C190.79 15.5698 190.617 12.3266 194 9L194 8L190 4z"/>
<path style="fill:#2f2f2f; stroke:none;" d="M191 4L191 7L192 7L191 4z"/>
<path style="fill:#5e5e5e; stroke:none;" d="M37 5L38 6L37 5z"/>
<path style="fill:#2f2f2f; stroke:none;" d="M39 5L40 6L39 5M46 5L47 6L46 5M48 5L49 6L48 5z"/>
<path style="fill:#5e5e5e; stroke:none;" d="M128 5L128 10L129 10L128 5z"/>
<path style="fill:#fdfdfd; stroke:none;" d="M129 5L129 10C137.364 9.90087 137.364 5.09913 129 5z"/>
<path style="fill:#5e5e5e; stroke:none;" d="M136 5L137 6L136 5z"/>
<path style="fill:#a0a0a0; stroke:none;" d="M139.333 5.66667L139.667 6.33333L139.333 5.66667z"/>
<path style="fill:#2f2f2f; stroke:none;" d="M37 6L38 7L37 6z"/>
<path style="fill:#a0a0a0; stroke:none;" d="M39.3333 6.66667L39.6667 7.33333L39.3333 6.66667z"/>
<path style="fill:#2f2f2f; stroke:none;" d="M47.6667 7.33333L48.3333 7.66667L47.6667 7.33333z"/>
<path style="fill:#a0a0a0; stroke:none;" d="M49 7L50 8L49 7M51 9L54 8L51 9M61 7L63 9L63 7L61 7M65 7L64 20L65 20L65 8L67 11L68 11L70 8L65 7z"/>
<path style="fill:#5e5e5e; stroke:none;" d="M70 7L71 8L70 7z"/>
<path style="fill:#a0a0a0; stroke:none;" d="M71 7L72 8L71 7M76 7L77 8L76 7z"/>
<path style="fill:#5e5e5e; stroke:none;" d="M77.6667 7.33333L78.3333 7.66667L77.6667 7.33333z"/>
<path style="fill:#a0a0a0; stroke:none;" d="M79 7L80 8L79 7M85.6667 7.33333L86.3333 7.66667L85.6667 7.33333M89 7L89 8L91 10L92 10L89 7M95 7L96 8L95 7z"/>
<path style="fill:#5e5e5e; stroke:none;" d="M96 7L96 8L100 8L96 7z"/>
<path style="fill:#a0a0a0; stroke:none;" d="M100 7L101 8L100 7M106.667 7.33333L107.333 7.66667L106.667 7.33333M110 7L111 8L110 7z"/>
<path style="fill:#5e5e5e; stroke:none;" d="M111.667 7.33333L112.333 7.66667L111.667 7.33333z"/>
<path style="fill:#a0a0a0; stroke:none;" d="M113 7L114 8L113 7z"/>
<path style="fill:#2f2f2f; stroke:none;" d="M137.333 7.66667L137.667 8.33333L137.333 7.66667z"/>
<path style="fill:#5e5e5e; stroke:none;" d="M139 7L140 8L139 7z"/>
<path style="fill:#a0a0a0; stroke:none;" d="M145.667 7.33333L146.333 7.66667L145.667 7.33333z"/>
<path style="fill:#5e5e5e; stroke:none;" d="M147 7L148 8L147 7z"/>
<path style="fill:#a0a0a0; stroke:none;" d="M148.667 7.33333L149.333 7.66667L148.667 7.33333M157 7L158 8L157 7z"/>
<path style="fill:#5e5e5e; stroke:none;" d="M158 7L158 8L161 8L158 7z"/>
<path style="fill:#a0a0a0; stroke:none;" d="M161 7L162 8L161 7M170 7L171 8L170 7z"/>
<path style="fill:#5e5e5e; stroke:none;" d="M171.667 7.33333L172.333 7.66667L171.667 7.33333z"/>
<path style="fill:#a0a0a0; stroke:none;" d="M173.667 7.33333L174.333 7.66667L173.667 7.33333M181.667 7.33333L182.333 7.66667L181.667 7.33333M185 7L185 8L189 8L185 7z"/>
<path style="fill:#5e5e5e; stroke:none;" d="M189 7L190 8L189 7z"/>
<path style="fill:#a0a0a0; stroke:none;" d="M192.667 7.33333L193.333 7.66667L192.667 7.33333z"/>
<path style="fill:#2f2f2f; stroke:none;" d="M37 8L38 9L37 8z"/>
<path style="fill:#5e5e5e; stroke:none;" d="M39 8L40 9L39 8z"/>
<path style="fill:#050505; stroke:none;" d="M52 8C53.8198 14.6534 56.5463 18.4469 53 25C58.5948 21.6605 60.3575 14.0172 62 8L61 8L57 18L52 8z"/>
<path style="fill:#2f2f2f; stroke:none;" d="M53 8L54 9L53 8z"/>
<path style="fill:#5e5e5e; stroke:none;" d="M60 8L61 9L60 8z"/>
<path style="fill:#050505; stroke:none;" d="M65 8L65 20L66 20L68 9L65 8M68 8L68 9C73.291 10.6712 72.986 15.1123 73 20L74 20C74.0042 14.5321 73.6944 10.0056 80 9L80 20L82 20L81 8L68 8z"/>
<path style="fill:#a0a0a0; stroke:none;" d="M73.6667 8.33333L74.3333 8.66667L73.6667 8.33333z"/>
<path style="fill:#050505; stroke:none;" d="M85 8L85 20L87 20C87.0168 15.2503 87.2084 12.1582 91 9L91 8L85 8z"/>
<path style="fill:#2f2f2f; stroke:none;" d="M86.3333 8.66667L86.6667 9.33333L86.3333 8.66667z"/>
<path style="fill:#5e5e5e; stroke:none;" d="M88 8L89 9L88 8M94 8L93 10L94 8z"/>
<path style="fill:#050505; stroke:none;" d="M93 11L101 10L101 12C96.2041 13.4093 89.5086 18.1465 98 20L98 19L94 15L101 13L99 19L104 20C101.747 14.6833 100.914 2.92616 93 11z"/>
<path style="fill:#2f2f2f; stroke:none;" d="M101 8L102 9L101 8z"/>
<path style="fill:#050505; stroke:none;" d="M106 8L106 20L108 20L108 8L106 8z"/>
<path style="fill:#2f2f2f; stroke:none;" d="M109 8L108 11L109 8z"/>
<path style="fill:#050505; stroke:none;" d="M110 8L110 9C115.291 10.6712 114.986 15.1123 115 20C117.241 14.6585 116.457 8.51495 110 8z"/>
<path style="fill:#a0a0a0; stroke:none;" d="M115 8L116 9L115 8M139 8L140 9L139 8z"/>
<path style="fill:#5e5e5e; stroke:none;" d="M144 8L143 10L144 8z"/>
<path style="fill:#050505; stroke:none;" d="M152 16L151 16C147.775 18.6909 145.82 17.5208 144 14L153 14C151.041 8.42429 142.376 5.79585 142.573 13.9892C142.723 20.2521 149.402 20.6956 152 16z"/>
<path style="fill:#2f2f2f; stroke:none;" d="M150 8L151 9L150 8z"/>
<path style="fill:#a0a0a0; stroke:none;" d="M155 8L156 9L155 8z"/>
<path style="fill:#050505; stroke:none;" d="M163 18L156 16L155 16C157 19.6247 165.628 20.9423 163.338 15.385C162.372 13.0404 157.964 11.4652 156 10L164 11C162.599 9.57092 155.063 5.83834 155.921 11.0046C156.359 13.6382 161.308 15.9386 163 18z"/>
<path style="fill:#2f2f2f; stroke:none;" d="M162 8L163 9L162 8z"/>
<path style="fill:#a0a0a0; stroke:none;" d="M168 8L167 10L168 8z"/>
<path style="fill:#050505; stroke:none;" d="M169.434 9.03164C163.79 12.8185 169.773 22.9916 175.682 18.2531C180.887 14.0793 175.229 5.1431 169.434 9.03164z"/>
<path style="fill:#2f2f2f; stroke:none;" d="M175 8L176 9L175 8z"/>
<path style="fill:#050505; stroke:none;" d="M181 8L181 20L183 20C183.017 15.2503 183.208 12.1582 187 9L187 8L181 8z"/>
<path style="fill:#2f2f2f; stroke:none;" d="M182.333 8.66667L182.667 9.33333L182.333 8.66667z"/>
<path style="fill:#5e5e5e; stroke:none;" d="M184 8L185 9L184 8M187 8L186 10L187 8z"/>
<path style="fill:#a0a0a0; stroke:none;" d="M194 8L195 9L194 8M37 9L38 10L37 9z"/>
<path style="fill:#2f2f2f; stroke:none;" d="M40 9L41 10L40 9z"/>
<path style="fill:#a0a0a0; stroke:none;" d="M41 9L42 10L41 9z"/>
<path style="fill:#2f2f2f; stroke:none;" d="M66 9L67 10L66 9z"/>
<path style="fill:#a0a0a0; stroke:none;" d="M70 9L71 10L70 9z"/>
<path style="fill:#5e5e5e; stroke:none;" d="M71 9L72 10L71 9M75 9L76 10L75 9z"/>
<path style="fill:#a0a0a0; stroke:none;" d="M76 9L77 10L76 9M78 9L80 11L78 9z"/>
<path style="fill:#2f2f2f; stroke:none;" d="M79 9L80 10L79 9z"/>
<path style="fill:#5e5e5e; stroke:none;" d="M81 9L82 10L81 9z"/>
<path style="fill:#a0a0a0; stroke:none;" d="M87 9L88 10L87 9z"/>
<path style="fill:#2f2f2f; stroke:none;" d="M89 9L90 10L89 9z"/>
<path style="fill:#5e5e5e; stroke:none;" d="M90 9L91 10L90 9z"/>
<path style="fill:#2f2f2f; stroke:none;" d="M95 9L96 10L95 9z"/>
<path style="fill:#a0a0a0; stroke:none;" d="M96.6667 9.33333L97.3333 9.66667L96.6667 9.33333M99 9L100 10L99 9M102 9L103 10L102 9M110 9L111 10L110 9M112 9L113 10L112 9z"/>
<path style="fill:#2f2f2f; stroke:none;" d="M113 9L114 10L113 9M115 9L116 10L115 9z"/>
<path style="fill:#a0a0a0; stroke:none;" d="M136 9L137 10L136 9z"/>
<path style="fill:#2f2f2f; stroke:none;" d="M145 9L144 11L145 9z"/>
<path style="fill:#a0a0a0; stroke:none;" d="M146 9L147 10L146 9z"/>
<path style="fill:#fdfdfd; stroke:none;" d="M145 12L151 12C148.638 9.9328 147.02 9.35436 145 12z"/>
<path style="fill:#a0a0a0; stroke:none;" d="M148 9L149 10L148 9z"/>
<path style="fill:#2f2f2f; stroke:none;" d="M149 9L150 10L149 9M151 9L152 10L151 9z"/>
<path style="fill:#a0a0a0; stroke:none;" d="M157.667 9.33333L158.333 9.66667L157.667 9.33333M160 9L161 10L160 9z"/>
<path style="fill:#2f2f2f; stroke:none;" d="M161 9L162 10L161 9M163 9L164 10L163 9z"/>
<path style="fill:#5e5e5e; stroke:none;" d="M170 9L169 11L170 9z"/>
<path style="fill:#a0a0a0; stroke:none;" d="M171 9L172 10L171 9z"/>
<path style="fill:#fdfdfd; stroke:none;" d="M172.039 10.1759C168.512 10.6993 168.419 17.3642 172.17 17.3642C176.575 17.3642 176.396 9.52948 172.039 10.1759z"/>
<path style="fill:#a0a0a0; stroke:none;" d="M173 9L174 10L173 9z"/>
<path style="fill:#2f2f2f; stroke:none;" d="M174 9L175 10L174 9z"/>
<path style="fill:#a0a0a0; stroke:none;" d="M183 9L184 10L183 9z"/>
<path style="fill:#2f2f2f; stroke:none;" d="M185 9L186 10L185 9z"/>
<path style="fill:#a0a0a0; stroke:none;" d="M187 9L187 10L190 10L187 9M192.667 9.33333L193.333 9.66667L192.667 9.33333z"/>
<path style="fill:#5e5e5e; stroke:none;" d="M38 10L39 11L38 10M44 10L45 11L44 10z"/>
<path style="fill:#a0a0a0; stroke:none;" d="M45 10L46 11L45 10z"/>
<path style="fill:#5e5e5e; stroke:none;" d="M52 10L53 11L52 10M54 10L55 11L54 10z"/>
<path style="fill:#a0a0a0; stroke:none;" d="M59 10L60 11L59 10z"/>
<path style="fill:#5e5e5e; stroke:none;" d="M61 10L62 11L61 10z"/>
<path style="fill:#2f2f2f; stroke:none;" d="M74 10L75 11L74 10M81 10L82 11L81 10z"/>
<path style="fill:#a0a0a0; stroke:none;" d="M88 10L89 11L88 10M100.333 10.6667L100.667 11.3333L100.333 10.6667z"/>
<path style="fill:#5e5e5e; stroke:none;" d="M102 10L103 11L102 10z"/>
<path style="fill:#2f2f2f; stroke:none;" d="M128 10L129 11L128 10z"/>
<path style="fill:#a0a0a0; stroke:none;" d="M129 10L129 11L135 11L129 10z"/>
<path style="fill:#5e5e5e; stroke:none;" d="M135 10L136 11L135 10M138 10L139 11L138 10z"/>
<path style="fill:#a0a0a0; stroke:none;" d="M142 10L143 11L142 10z"/>
<path style="fill:#5e5e5e; stroke:none;" d="M150 10L151 11L150 10z"/>
<path style="fill:#a0a0a0; stroke:none;" d="M152 10L153 11L152 10M154.333 10.6667L154.667 11.3333L154.333 10.6667z"/>
<path style="fill:#2f2f2f; stroke:none;" d="M156 10L157 11L156 10M167 10L168 11L167 10M175 10L176 11L175 10z"/>
<path style="fill:#5e5e5e; stroke:none;" d="M177 10L178 11L177 10z"/>
<path style="fill:#a0a0a0; stroke:none;" d="M184 10L185 11L184 10z"/>
<path style="fill:#2f2f2f; stroke:none;" d="M191 10L191 17L192 17L191 10z"/>
<path style="fill:#5e5e5e; stroke:none;" d="M40 11L41 12L40 11z"/>
<path style="fill:#2f2f2f; stroke:none;" d="M41 11L42 12L41 11z"/>
<path style="fill:#5e5e5e; stroke:none;" d="M47 11L48 12L47 11z"/>
<path style="fill:#a0a0a0; stroke:none;" d="M52 11L53 12L52 11z"/>
<path style="fill:#2f2f2f; stroke:none;" d="M54 11L55 12L54 11z"/>
<path style="fill:#5e5e5e; stroke:none;" d="M59 11L60 12L59 11z"/>
<path style="fill:#a0a0a0; stroke:none;" d="M61 11L62 12L61 11z"/>
<path style="fill:#2f2f2f; stroke:none;" d="M66 11L67 12L66 11M72 11L72 20L73 20L72 11z"/>
<path style="fill:#a0a0a0; stroke:none;" d="M74 11L74 20L75 20L74 11z"/>
<path style="fill:#5e5e5e; stroke:none;" d="M87 11L88 12L87 11z"/>
<path style="fill:#a0a0a0; stroke:none;" d="M93.6667 11.3333L94.3333 11.6667L93.6667 11.3333z"/>
<path style="fill:#2f2f2f; stroke:none;" d="M102 11L102 18L103 18L102 11z"/>
<path style="fill:#a0a0a0; stroke:none;" d="M108 11L109 12L108 11z"/>
<path style="fill:#2f2f2f; stroke:none;" d="M114 11L115 12L114 11z"/>
<path style="fill:#a0a0a0; stroke:none;" d="M116 11L116 20L117 20L116 11M137 11L138 12L137 11z"/>
<path style="fill:#2f2f2f; stroke:none;" d="M142 11L143 12L142 11z"/>
<path style="fill:#a0a0a0; stroke:none;" d="M144 11L151 13L151 12L144 11z"/>
<path style="fill:#2f2f2f; stroke:none;" d="M152 11L153 12L152 11z"/>
<path style="fill:#a0a0a0; stroke:none;" d="M166.333 11.6667L166.667 12.3333L166.333 11.6667M175 11L176 12L175 11z"/>
<path style="fill:#5e5e5e; stroke:none;" d="M183 11L184 12L183 11z"/>
<path style="fill:#a0a0a0; stroke:none;" d="M43.6667 12.3333L44.3333 12.6667L43.6667 12.3333z"/>
<path style="fill:#2f2f2f; stroke:none;" d="M45 12L46 13L45 12M53 12L54 13L53 12z"/>
<path style="fill:#a0a0a0; stroke:none;" d="M55 12L56 13L55 12z"/>
<path style="fill:#2f2f2f; stroke:none;" d="M60 12L61 13L60 12z"/>
<path style="fill:#5e5e5e; stroke:none;" d="M66 12L66 20L67 20L66 12z"/>
<path style="fill:#a0a0a0; stroke:none;" d="M87 12L88 13L87 12M98 12L99 13L98 12z"/>
<path style="fill:#5e5e5e; stroke:none;" d="M99 12L100 13L99 12M114 12L115 13L114 12z"/>
<path style="fill:#2f2f2f; stroke:none;" d="M128 12L129 13L128 12z"/>
<path style="fill:#5e5e5e; stroke:none;" d="M129 12L129 13L135 13L129 12z"/>
<path style="fill:#a0a0a0; stroke:none;" d="M138 12L139 13L138 12z"/>
<path style="fill:#2f2f2f; stroke:none;" d="M155 12L156 13L155 12z"/>
<path style="fill:#5e5e5e; stroke:none;" d="M158 12L159 13L158 12z"/>
<path style="fill:#a0a0a0; stroke:none;" d="M159.667 12.3333L160.333 12.6667L159.667 12.3333z"/>
<path style="fill:#5e5e5e; stroke:none;" d="M168 12L168 15L169 15L168 12z"/>
<path style="fill:#a0a0a0; stroke:none;" d="M178 12L178 15L179 15L178 12M183 12L184 13L183 12M46 13L47 14L46 13z"/>
<path style="fill:#2f2f2f; stroke:none;" d="M49 13L50 14L49 13z"/>
<path style="fill:#a0a0a0; stroke:none;" d="M53 13L54 14L53 13z"/>
<path style="fill:#5e5e5e; stroke:none;" d="M55 13L56 14L55 13z"/>
<path style="fill:#a0a0a0; stroke:none;" d="M58 13L59 14L58 13z"/>
<path style="fill:#5e5e5e; stroke:none;" d="M60 13L61 14L60 13z"/>
<path style="fill:#a0a0a0; stroke:none;" d="M94 13L95 14L94 13z"/>
<path style="fill:#2f2f2f; stroke:none;" d="M95 13L96 14L95 13M100 13L101 14L100 13M114 13L114 18L115 18L114 13z"/>
<path style="fill:#5e5e5e; stroke:none;" d="M128 13L128 20L129 20L128 13z"/>
<path style="fill:#2f2f2f; stroke:none;" d="M136 13L137 14L136 13M138 13L139 14L138 13z"/>
<path style="fill:#a0a0a0; stroke:none;" d="M153 13L154 14L153 13z"/>
<path style="fill:#5e5e5e; stroke:none;" d="M156 13L157 14L156 13M162 13L163 14L162 13M166.333 13.6667L166.667 14.3333L166.333 13.6667z"/>
<path style="fill:#2f2f2f; stroke:none;" d="M176.333 13.6667L176.667 14.3333L176.333 13.6667z"/>
<path style="fill:#a0a0a0; stroke:none;" d="M36.3333 14.6667L36.6667 15.3333L36.3333 14.6667z"/>
<path style="fill:#5e5e5e; stroke:none;" d="M37 14L38 15L37 14z"/>
<path style="fill:#a0a0a0; stroke:none;" d="M38 14L39 15L38 14M47 14L48 15L47 14z"/>
<path style="fill:#5e5e5e; stroke:none;" d="M58 14L59 15L58 14z"/>
<path style="fill:#2f2f2f; stroke:none;" d="M93 14L94 15L93 14z"/>
<path style="fill:#5e5e5e; stroke:none;" d="M96 14L97 15L96 14z"/>
<path style="fill:#a0a0a0; stroke:none;" d="M97.6667 14.3333L98.3333 14.6667L97.6667 14.3333z"/>
<path style="fill:#fdfdfd; stroke:none;" d="M99 14L95 15L95 18C97.7583 17.5486 99.6883 17.0455 99 14z"/>
<path style="fill:#a0a0a0; stroke:none;" d="M100.333 14.6667L100.667 15.3333L100.333 14.6667M136 14L137 15L136 14M144 14L144 15L153 15L144 14M158 14L159 15L158 14z"/>
<path style="fill:#5e5e5e; stroke:none;" d="M159 14L160 15L159 14z"/>
<path style="fill:#2f2f2f; stroke:none;" d="M160 14L161 15L160 14M38 15L39 16L38 15z"/>
<path style="fill:#5e5e5e; stroke:none;" d="M54 15L55 16L54 15z"/>
<path style="fill:#a0a0a0; stroke:none;" d="M56 15L58 17L56 15z"/>
<path style="fill:#2f2f2f; stroke:none;" d="M59 15L60 16L59 15z"/>
<path style="fill:#a0a0a0; stroke:none;" d="M92 15L93 16L92 15z"/>
<path style="fill:#2f2f2f; stroke:none;" d="M94 15L95 16L94 15z"/>
<path style="fill:#a0a0a0; stroke:none;" d="M139 15L139 18L140 18L139 15z"/>
<path style="fill:#2f2f2f; stroke:none;" d="M142 15L143 16L142 15z"/>
<path style="fill:#a0a0a0; stroke:none;" d="M161 15L162 16L161 15z"/>
<path style="fill:#5e5e5e; stroke:none;" d="M164.333 15.6667L164.667 16.3333L164.333 15.6667z"/>
<path style="fill:#a0a0a0; stroke:none;" d="M166 15L167 16L166 15z"/>
<path style="fill:#2f2f2f; stroke:none;" d="M168 15L169 16L168 15z"/>
<path style="fill:#a0a0a0; stroke:none;" d="M39 16L40 17L39 16M47 16L48 17L47 16z"/>
<path style="fill:#2f2f2f; stroke:none;" d="M49 16L50 17L49 16z"/>
<path style="fill:#a0a0a0; stroke:none;" d="M54 16L55 17L54 16z"/>
<path style="fill:#5e5e5e; stroke:none;" d="M56 16L57 17L56 16z"/>
<path style="fill:#a0a0a0; stroke:none;" d="M59 16L60 17L59 16z"/>
<path style="fill:#5e5e5e; stroke:none;" d="M92 16L93 17L92 16M94 16L95 17L94 16M100 16L101 17L100 16z"/>
<path style="fill:#2f2f2f; stroke:none;" d="M137.333 16.6667L137.667 17.3333L137.333 16.6667z"/>
<path style="fill:#5e5e5e; stroke:none;" d="M142 16L143 17L142 16z"/>
<path style="fill:#a0a0a0; stroke:none;" d="M144 16L145 17L144 16z"/>
<path style="fill:#2f2f2f; stroke:none;" d="M152 16L153 17L152 16z"/>
<path style="fill:#5e5e5e; stroke:none;" d="M154 16L155 17L154 16z"/>
<path style="fill:#a0a0a0; stroke:none;" d="M156 16L157 17L156 16M162 16L163 17L162 16M169 16L170 17L169 16M175 16L176 17L175 16z"/>
<path style="fill:#5e5e5e; stroke:none;" d="M37 17L38 18L37 17z"/>
<path style="fill:#a0a0a0; stroke:none;" d="M40 17L41 18L40 17M46 17L47 18L46 17z"/>
<path style="fill:#5e5e5e; stroke:none;" d="M49 17L50 18L49 17z"/>
<path style="fill:#2f2f2f; stroke:none;" d="M55 17L56 18L55 17M57 17L58 18L57 17z"/>
<path style="fill:#a0a0a0; stroke:none;" d="M92 17L93 18L92 17z"/>
<path style="fill:#2f2f2f; stroke:none;" d="M94 17L95 18L94 17z"/>
<path style="fill:#a0a0a0; stroke:none;" d="M99 17L100 18L99 17M145 17L146 18L145 17z"/>
<path style="fill:#2f2f2f; stroke:none;" d="M150 17L151 18L150 17z"/>
<path style="fill:#5e5e5e; stroke:none;" d="M152 17L153 18L152 17z"/>
<path style="fill:#a0a0a0; stroke:none;" d="M154 17L155 18L154 17z"/>
<path style="fill:#2f2f2f; stroke:none;" d="M156 17L157 18L156 17z"/>
<path style="fill:#5e5e5e; stroke:none;" d="M162 17L163 18L162 17z"/>
<path style="fill:#a0a0a0; stroke:none;" d="M164 17L165 18L164 17z"/>
<path style="fill:#5e5e5e; stroke:none;" d="M167 17L168 18L167 17z"/>
<path style="fill:#2f2f2f; stroke:none;" d="M169 17L170 18L169 17z"/>
<path style="fill:#a0a0a0; stroke:none;" d="M174 17L175 18L174 17M177 17L178 18L177 17z"/>
<path style="fill:#2f2f2f; stroke:none;" d="M38 18L39 19L38 18M41 18L42 19L41 18z"/>
<path style="fill:#5e5e5e; stroke:none;" d="M42 18L42 19L45 19L42 18z"/>
<path style="fill:#2f2f2f; stroke:none;" d="M45 18L46 19L45 18z"/>
<path style="fill:#5e5e5e; stroke:none;" d="M48 18L49 19L48 18z"/>
<path style="fill:#a0a0a0; stroke:none;" d="M55 18L56 19L55 18z"/>
<path style="fill:#5e5e5e; stroke:none;" d="M58 18L59 19L58 18z"/>
<path style="fill:#2f2f2f; stroke:none;" d="M95 18L96 19L95 18z"/>
<path style="fill:#5e5e5e; stroke:none;" d="M96.6667 18.3333L97.3333 18.6667L96.6667 18.3333z"/>
<path style="fill:#2f2f2f; stroke:none;" d="M98.3333 18.6667L98.6667 19.3333L98.3333 18.6667z"/>
<path style="fill:#5e5e5e; stroke:none;" d="M100 18L101 19L100 18M103 18L104 19L103 18M114 18L115 19L114 18M137 18L138 19L137 18M139 18L140 19L139 18z"/>
<path style="fill:#a0a0a0; stroke:none;" d="M143 18L144 19L143 18z"/>
<path style="fill:#2f2f2f; stroke:none;" d="M146 18L147 19L146 18z"/>
<path style="fill:#5e5e5e; stroke:none;" d="M147.667 18.3333L148.333 18.6667L147.667 18.3333z"/>
<path style="fill:#2f2f2f; stroke:none;" d="M151 18L152 19L151 18M155 18L156 19L155 18z"/>
<path style="fill:#5e5e5e; stroke:none;" d="M158 18L158 19L161 19L158 18z"/>
<path style="fill:#2f2f2f; stroke:none;" d="M161 18L162 19L161 18M168 18L169 19L168 18z"/>
<path style="fill:#5e5e5e; stroke:none;" d="M171.667 18.3333L172.333 18.6667L171.667 18.3333z"/>
<path style="fill:#2f2f2f; stroke:none;" d="M173 18L174 19L173 18z"/>
<path style="fill:#5e5e5e; stroke:none;" d="M176 18L177 19L176 18z"/>
<path style="fill:#2f2f2f; stroke:none;" d="M192.667 18.3333L193.333 18.6667L192.667 18.3333z"/>
<path style="fill:#a0a0a0; stroke:none;" d="M194.333 18.6667L194.667 19.3333L194.333 18.6667M39 19L40 20L39 19z"/>
<path style="fill:#2f2f2f; stroke:none;" d="M40 19L41 20L40 19M46 19L47 20L46 19z"/>
<path style="fill:#a0a0a0; stroke:none;" d="M47 19L48 20L47 19M58 19L59 20L58 19M93 19L94 20L93 19z"/>
<path style="fill:#2f2f2f; stroke:none;" d="M94 19L95 20L94 19z"/>
<path style="fill:#a0a0a0; stroke:none;" d="M99 19L100 20L99 19z"/>
<path style="fill:#2f2f2f; stroke:none;" d="M101 19L102 20L101 19M114 19L115 20L114 19z"/>
<path style="fill:#a0a0a0; stroke:none;" d="M137 19L138 20L137 19M144 19L145 20L144 19z"/>
<path style="fill:#2f2f2f; stroke:none;" d="M145 19L146 20L145 19z"/>
<path style="fill:#5e5e5e; stroke:none;" d="M150 19L151 20L150 19M156 19L157 20L156 19M162 19L163 20L162 19M169 19L170 20L169 19z"/>
<path style="fill:#2f2f2f; stroke:none;" d="M174 19L175 20L174 19z"/>
<path style="fill:#a0a0a0; stroke:none;" d="M175 19L176 20L175 19M190 19L191 20L190 19z"/>
<path style="fill:#2f2f2f; stroke:none;" d="M191 19L192 20L191 19z"/>
<path style="fill:#a0a0a0; stroke:none;" d="M42 20L42 21L45 21L42 20z"/>
<path style="fill:#2f2f2f; stroke:none;" d="M57 20L58 21L57 20z"/>
<path style="fill:#a0a0a0; stroke:none;" d="M96 20L97 21L96 20M147 20L148 21L147 20M159 20L160 21L159 20M172 20L173 21L172 20z"/>
<path style="fill:#5e5e5e; stroke:none;" d="M55 21L56 22L55 21z"/>
<path style="fill:#a0a0a0; stroke:none;" d="M57 21L58 22L57 21z"/>
<path style="fill:#5e5e5e; stroke:none;" d="M52 23L53 24L52 23z"/>
<path style="fill:#2f2f2f; stroke:none;" d="M53 23L54 24L53 23z"/>
<path style="fill:#a0a0a0; stroke:none;" d="M56 23L57 24L56 23M52 24L53 25L52 24z"/>
<path style="fill:#2f2f2f; stroke:none;" d="M54 24L55 25L54 24z"/>
<path style="fill:#a0a0a0; stroke:none;" d="M55 24L56 25L55 24z"/>
</svg>
